<?xml version="1.0" standalone="no"?>
<!DOCTYPE svg PUBLIC "-//W3C//DTD SVG 20010904//EN"
 "http://www.w3.org/TR/2001/REC-SVG-20010904/DTD/svg10.dtd">
<svg version="1.0" xmlns="http://www.w3.org/2000/svg"
 width="700.000000pt" height="700.000000pt" viewBox="0 0 700.000000 700.000000"
 preserveAspectRatio="xMidYMid meet">
<metadata>
Created by potrace 1.14, written by Peter Selinger 2001-2017
</metadata>
<g transform="translate(0.000000,700.000000) scale(0.100000,-0.100000)"
fill="#000000" stroke="none">
<path d="M1866 6113 c-1 -1 -43 -3 -93 -4 -444 -9 -873 -265 -1104 -661 -62
-106 -131 -281 -145 -368 -7 -41 -14 -73 -21 -100 -4 -14 -9 -720 -10 -1570
-2 -1275 0 -1558 12 -1620 7 -41 16 -91 20 -110 20 -112 98 -294 182 -425 204
-318 577 -551 949 -592 86 -10 3621 -11 3689 -1 374 53 698 246 912 543 41 58
135 217 139 235 0 3 6 19 13 35 41 95 77 230 89 330 9 81 9 3096 -1 3163 -28
200 -111 408 -228 578 -89 128 -248 278 -394 372 -55 34 -202 103 -272 125
-97 32 -216 57 -309 64 -63 5 -3423 11 -3428 6z m3455 -433 c128 -20 245 -65
354 -134 50 -32 67 -46 130 -103 41 -36 123 -139 158 -198 48 -82 83 -173 107
-280 19 -87 19 -134 20 -1571 0 -1626 2 -1572 -60 -1732 -111 -287 -326 -477
-638 -565 l-77 -21 -1790 -2 c-1684 -1 -1795 0 -1878 16 -366 75 -638 346
-723 720 -5 19 -10 719 -11 1555 -2 1321 -1 1528 12 1585 26 110 47 172 86
247 158 301 455 487 788 492 58 1 106 3 107 4 1 1 753 1 1671 1 1237 -1 1689
-5 1744 -14z"/>
<path d="M2205 4971 c-344 -86 -580 -373 -591 -721 -15 -452 343 -808 797
-794 145 4 305 58 419 142 101 74 204 201 252 310 61 141 82 324 52 465 -63
302 -285 527 -594 603 -62 16 -266 12 -335 -5z m328 -436 c67 -33 137 -105
168 -174 17 -35 22 -67 23 -136 1 -80 -2 -96 -28 -149 -139 -283 -538 -263
-645 32 -30 81 -25 184 11 262 19 39 76 107 114 137 93 70 248 83 357 28z"/>
<path d="M4813 4971 c-30 -14 -418 -396 -1462 -1440 -781 -781 -1427 -1434
-1436 -1450 -52 -102 -12 -231 88 -283 55 -29 137 -29 192 0 25 13 578 559
1467 1449 1530 1532 1448 1445 1448 1543 -1 142 -164 241 -297 181z"/>
<path d="M4495 3304 c-167 -34 -309 -108 -419 -219 -212 -214 -280 -531 -176
-814 52 -139 178 -295 302 -374 309 -196 700 -154 958 102 109 108 190 257
217 398 14 72 8 265 -10 333 -35 130 -124 283 -216 370 -35 33 -107 90 -114
90 -3 0 -27 13 -54 29 -45 28 -132 61 -199 77 -33 7 -259 14 -289 8z m279
-449 c70 -35 129 -98 164 -173 23 -48 27 -70 27 -142 -1 -100 -27 -169 -91
-236 -211 -221 -587 -85 -600 216 -6 135 43 232 157 318 79 59 244 67 343 17z"/>
</g>
</svg>
